<?xml version="1.0" encoding="UTF-8"?>
<!DOCTYPE svg PUBLIC "-//W3C//DTD SVG 1.1//EN" "http://www.w3.org/Graphics/SVG/1.1/DTD/svg11.dtd">
<!-- Creator: CorelDRAW X7 -->
<svg xmlns="http://www.w3.org/2000/svg" xml:space="preserve" width="43.3524mm" height="42.7894mm" version="1.1" style="shape-rendering:geometricPrecision; text-rendering:geometricPrecision; image-rendering:optimizeQuality; fill-rule:evenodd; clip-rule:evenodd"
viewBox="0 0 112 111"
 xmlns:xlink="http://www.w3.org/1999/xlink">
 <defs>
  <style type="text/css">
   <![CDATA[
    .fil2 {fill:#FEFEFE}
    .fil0 {fill:#0468B3}
    .fil1 {fill:#FEFEFE;fill-rule:nonzero}
   ]]>
  </style>
 </defs>
 <g id="__x0023_Layer_x0020_1">
  <metadata id="CorelCorpID_0Corel-Layer"/>
  <g id="_2340027841744">
   <rect class="fil0" width="112" height="111" rx="16" ry="18"/>
   <g>
    <path class="fil1" d="M103 56l-5 0 0 0 0 -3 0 -2 0 -2 0 -2 -1 -2 0 -2 -1 -2 -1 -2 -1 -2 -1 -2 -1 -1 -1 -2 -1 -2 -1 -1 -1 -2 -2 -1 -1 -2 -2 -1 -1 -1 -2 -2 -2 -1 -2 -1 -1 -1 -2 0 -2 -1 -2 -1 -2 0 -2 -1 -2 0 -2 -1 -3 0 -2 0 0 -5 3 0 2 0 2 1 3 0 2 1 2 0 2 1 3 1 2 1 2 1 2 1 2 1 2 2 1 1 2 2 2 1 1 2 2 1 1 2 1 2 2 2 1 2 1 2 1 2 1 2 0 2 1 3 1 2 0 2 0 3 0 2 0 3 0 0zm-47 47l0 -5 0 0 2 0 3 0 2 -1 2 0 2 -1 2 0 2 -1 2 -1 2 0 1 -1 2 -1 2 -1 2 -2 1 -1 2 -1 1 -2 2 -1 1 -2 1 -1 1 -2 1 -2 1 -1 1 -2 1 -2 1 -2 1 -2 0 -2 1 -2 0 -2 0 -2 0 -2 0 -2 5 0 0 2 0 2 0 3 0 2 -1 2 -1 3 0 2 -1 2 -1 2 -1 2 -1 2 -2 2 -1 2 -1 2 -2 1 -1 2 -2 1 -2 2 -1 1 -2 2 -2 1 -2 1 -2 1 -2 1 -3 1 -2 1 -2 0 -2 1 -3 0 -2 1 -2 0 -3 0 0 0zm-47 -47l5 0 0 0 0 2 0 2 0 2 1 2 0 2 1 2 1 2 0 2 1 2 1 2 1 1 1 2 1 2 2 1 1 2 1 1 2 2 1 1 2 1 2 2 1 1 2 1 2 1 2 0 2 1 2 1 2 0 2 1 2 0 2 1 2 0 2 0 0 5 -2 0 -3 0 -2 -1 -2 0 -3 -1 -2 0 -2 -1 -2 -1 -2 -1 -2 -1 -2 -1 -2 -1 -2 -2 -2 -1 -2 -2 -1 -1 -2 -2 -1 -1 -2 -2 -1 -2 -1 -2 -1 -2 -1 -2 -1 -2 -1 -2 -1 -2 -1 -3 0 -2 0 -2 -1 -3 0 -2 0 -2 0 0zm47 -48l0 5 0 0 -2 0 -2 0 -2 1 -2 0 -2 1 -2 0 -2 1 -2 1 -2 0 -2 1 -2 1 -1 1 -2 2 -2 1 -1 1 -2 2 -1 1 -1 2 -2 1 -1 2 -1 2 -1 1 -1 2 -1 2 0 2 -1 2 -1 2 0 2 -1 2 0 2 0 2 0 3 -5 0 0 -3 0 -2 1 -3 0 -2 0 -2 1 -3 1 -2 1 -2 1 -2 1 -2 1 -2 1 -2 1 -2 2 -2 1 -1 2 -2 1 -1 2 -2 2 -1 2 -2 2 -1 2 -1 2 -1 2 -1 2 -1 2 -1 2 0 3 -1 2 0 2 -1 3 0 2 0 0 0z"/>
   </g>
   <polygon class="fil2" points="90,51 42,87 57,54 38,27 "/>
  </g>
 </g>
</svg>
